<svg width="17" height="22" viewBox="0 0 17 22" fill="none" xmlns="http://www.w3.org/2000/svg">
<path d="M8.50001 21.7496C7.90001 21.7496 7.31001 21.6096 6.83001 21.3396L2.10001 18.6096C0.14001 17.2896 0.0100098 17.0496 0.0100098 14.9796V10.0196C0.0100098 7.94957 0.14001 7.70957 2.06001 6.41957L6.84001 3.65957C7.79001 3.10957 9.22001 3.10957 10.17 3.65957L14.9 6.38957C16.86 7.70957 16.99 7.94957 16.99 10.0196V14.9796C16.99 17.0496 16.86 17.2896 14.94 18.5796L10.16 21.3396C9.69001 21.6196 9.09001 21.7496 8.50001 21.7496ZM8.50001 4.74957C8.16001 4.74957 7.82001 4.81957 7.58001 4.95957L2.85001 7.68957C1.51001 8.59957 1.51001 8.59957 1.51001 10.0196V14.9796C1.51001 16.3996 1.51001 16.3996 2.90001 17.3396L7.59001 20.0396C8.07001 20.3196 8.94001 20.3196 9.42001 20.0396L14.15 17.3096C15.49 16.3996 15.49 16.3996 15.49 14.9796V10.0196C15.49 8.59957 15.49 8.59957 14.1 7.65957L9.41001 4.95957C9.18001 4.81957 8.84001 4.74957 8.50001 4.74957Z" fill="white"/>
<path d="M14 7.38C13.59 7.38 13.25 7.04 13.25 6.63V4C13.25 2.42 12.58 1.75 11 1.75H6C4.42 1.75 3.75 2.42 3.75 4V6.56C3.75 6.97 3.41 7.31 3 7.31C2.59 7.31 2.25 6.98 2.25 6.56V4C2.25 1.58 3.58 0.25 6 0.25H11C13.42 0.25 14.75 1.58 14.75 4V6.63C14.75 7.04 14.41 7.38 14 7.38Z" fill="white"/>
<path d="M10.13 16.6301C9.91999 16.6301 9.69999 16.5901 9.47999 16.5001L8.49999 16.1201L7.51999 16.5101C6.98999 16.7201 6.44999 16.6701 6.04999 16.3801C5.64999 16.0901 5.43999 15.5901 5.46999 15.0201L5.52999 13.9701L4.85999 13.1601C4.49999 12.7101 4.37999 12.1901 4.53999 11.7101C4.68999 11.2401 5.09999 10.8801 5.64999 10.7401L6.66999 10.4801L7.23999 9.59012C7.84999 8.63012 9.15999 8.63012 9.76999 9.59012L10.34 10.4801L11.36 10.7401C11.91 10.8801 12.32 11.2401 12.47 11.7101C12.62 12.1801 12.5 12.7101 12.14 13.1501L11.47 13.9601L11.53 15.0101C11.56 15.5801 11.35 16.0701 10.95 16.3701C10.71 16.5401 10.43 16.6301 10.13 16.6301ZM6.01999 12.2001L6.68999 13.0101C6.91999 13.2801 7.04999 13.7101 7.02999 14.0601L6.96999 15.1101L7.94999 14.7201C8.27999 14.5901 8.71999 14.5901 9.04999 14.7201L10.03 15.1101L9.96999 14.0601C9.94999 13.7101 10.08 13.2901 10.31 13.0101L10.98 12.2001L9.95999 11.9401C9.61999 11.8501 9.25999 11.5901 9.06999 11.3001L8.50999 10.4201L7.93999 11.3001C7.74999 11.6001 7.38999 11.8601 7.04999 11.9501L6.01999 12.2001Z" fill="white"/>
</svg>
